<svg width="61" height="61" viewBox="0 0 61 61" fill="none" xmlns="http://www.w3.org/2000/svg">
<path fill-rule="evenodd" clip-rule="evenodd" d="M3.2488 41.887C4.56153 44.0003 6.63455 46.0733 10.7806 50.2194C14.9267 54.3654 16.9997 56.4385 19.113 57.7512C26.0864 62.0829 34.9136 62.0829 41.887 57.7512C44.0003 56.4385 46.0733 54.3654 50.2194 50.2194C54.3654 46.0733 56.4385 44.0003 57.7512 41.887C62.0829 34.9136 62.0829 26.0864 57.7512 19.113C56.4385 16.9997 54.3654 14.9267 50.2194 10.7806C46.0733 6.63455 44.0003 4.56153 41.887 3.2488C34.9136 -1.08293 26.0864 -1.08293 19.113 3.2488C16.9997 4.56153 14.9267 6.63455 10.7806 10.7806C6.63455 14.9267 4.56153 16.9997 3.2488 19.113C-1.08293 26.0864 -1.08293 34.9136 3.2488 41.887ZM37.6558 14.2706C36.3367 13.7559 34.949 13.4161 33.5404 13.2493C33.5404 13.2493 32.8355 13.1395 32.8368 13.7981C32.8396 15.2431 32.8863 16.6883 33.0043 18.1284C33.1522 19.747 33.3816 21.3795 33.9704 22.9073C34.392 24.0051 35.0484 25.034 35.9679 25.7938C37.0067 26.665 38.3078 27.1686 39.6214 27.4838C41.0385 27.8222 42.4952 27.9677 43.9479 28.0592C45.1458 28.1281 46.346 28.1568 47.5462 28.1593C47.8178 28.1599 48.0218 28.0167 48.0218 27.67C47.9427 26.9574 47.8216 26.249 47.6482 25.5525C47.05 23.1135 45.86 20.8188 44.2107 18.9043C42.4577 16.8612 40.1858 15.2512 37.6558 14.2706ZM33.5404 47.7315C34.949 47.5647 36.3367 47.2249 37.6558 46.7102C40.1858 45.7295 42.4577 44.1196 44.2107 42.0765C45.86 40.162 47.05 37.8673 47.6482 35.4282C47.8216 34.7317 47.9427 34.0234 48.0218 33.3107C48.0218 32.964 47.8178 32.8208 47.5462 32.8214C46.346 32.824 45.1458 32.8526 43.9479 32.9216C42.4952 33.0131 41.0385 33.1585 39.6214 33.497C38.3078 33.8122 37.0067 34.3157 35.9679 35.187C35.0484 35.9468 34.392 36.9756 33.9704 38.0735C33.3816 39.6013 33.1522 41.2338 33.0043 42.8523C32.8863 44.2925 32.8396 45.7376 32.8368 47.1826C32.8355 47.8413 33.5404 47.7315 33.5404 47.7315ZM23.6221 46.7102C24.9412 47.2249 26.329 47.5647 27.7375 47.7315C27.7375 47.7315 28.4424 47.8413 28.4411 47.1826C28.4384 45.7376 28.3916 44.2925 28.2736 42.8523C28.1257 41.2338 27.8963 39.6013 27.3076 38.0735C26.8859 36.9756 26.2296 35.9468 25.31 35.187C24.2713 34.3157 22.9701 33.8122 21.6566 33.497C20.2395 33.1585 18.7828 33.0131 17.33 32.9216C16.1321 32.8526 14.932 32.824 13.7318 32.8214C13.4601 32.8208 13.2562 32.964 13.2562 33.3107C13.3352 34.0234 13.4563 34.7317 13.6297 35.4282C14.228 37.8673 15.4179 40.162 17.0673 42.0765C18.8202 44.1196 21.0921 45.7295 23.6221 46.7102Z" fill="white"/>
</svg>
